<svg xmlns="http://www.w3.org/2000/svg" viewBox="0 0 512 512" role="img" aria-labelledby="title description">
  <title id="title">EdgeMouse monochrome mark</title>
  <desc id="description">A monochrome mouse pointer crossing the edge between two screens.</desc>
  <defs>
    <mask id="pointer-cutout">
      <rect width="512" height="512" fill="#FFFFFF"/>
      <path fill="#000000" transform="matrix(.82 0 0 .82 46.08 46.08)" d="M207 158c-5-3-11 1-10 7l9 157c0 6 7 8 11 4l28-34 28 59c2 5 8 7 13 4l25-12c5-3 7-9 4-14l-29-60 46-9c6-1 8-8 3-12L207 158Z"/>
    </mask>
  </defs>
  <g fill="#14242A" mask="url(#pointer-cutout)">
    <rect x="28" y="140" width="220" height="232" rx="42"/>
    <rect x="264" y="140" width="220" height="232" rx="42"/>
  </g>
</svg>
